<svg
    xmlns="http://www.w3.org/2000/svg"
    width="380"
    height="508"
    viewBox="0 0 380 508"
    version="1.1">
    <path
        d="M -0.045 4.250 C -0.070 6.588, 7.918 40.450, 17.705 79.500 L 35.500 150.500 52.250 167.599 L 69 184.699 69 205.485 L 69 226.272 54.859 281.666 L 40.718 337.061 53.017 362.780 C 59.782 376.926, 68.087 394.350, 71.472 401.500 L 77.627 414.500 76.357 420.500 C 74.220 430.595, 73.179 429.217, 94.396 444.387 L 113.791 458.256 112.283 462.682 C 111.454 465.117, 110.938 467.247, 111.138 467.417 C 111.337 467.586, 128.232 476.787, 148.682 487.863 C 179.442 504.522, 186.557 508, 189.877 508 C 193.242 508, 199.659 504.753, 229.694 487.850 C 249.388 476.768, 265.659 467.571, 265.854 467.413 C 266.049 467.255, 265.564 465.192, 264.777 462.830 L 263.345 458.535 284.422 444.230 C 296.015 436.362, 305.366 429.379, 305.203 428.712 C 305.039 428.045, 303.746 424.502, 302.329 420.838 L 299.753 414.176 319.377 376.138 C 330.169 355.217, 339 337.662, 339 337.127 C 339 336.592, 331.350 311.136, 322 280.558 L 305 224.963 305.019 204.731 L 305.039 184.500 322.769 168.082 C 332.521 159.052, 340.846 150.952, 341.269 150.082 C 341.692 149.212, 350.351 117.900, 360.510 80.500 C 370.669 43.100, 379.435 11.719, 379.990 10.764 C 380.546 9.809, 381 6.996, 381 4.514 L 381 0 377.064 0 C 374.001 0, 364.571 4.140, 334.564 18.656 L 296 37.312 296 68.562 L 296 99.812 282.638 93.070 C 232.627 67.833, 173.272 64.484, 116.223 83.680 C 105.171 87.399, 88.403 94.565, 82.894 97.923 C 81.027 99.061, 79.169 99.994, 78.764 99.996 C 78.359 99.998, 77.909 85.806, 77.764 68.457 L 77.500 36.915 42.296 18.457 C 15.871 4.602, 6.208 -0, 3.546 -0 C 0.048 -0, -0.001 0.057, -0.045 4.250 M 0.300 6 C 0.300 9.025, 0.487 10.263, 0.716 8.750 C 0.945 7.238, 0.945 4.763, 0.716 3.250 C 0.487 1.738, 0.300 2.975, 0.300 6 M 337.278 26.902 L 305.055 42.500 305.028 107.353 L 305 172.206 311.750 166.123 C 315.462 162.777, 321.947 156.768, 326.159 152.770 L 333.818 145.500 351.965 78.639 C 361.946 41.866, 369.975 11.672, 369.806 11.542 C 369.638 11.411, 355 18.323, 337.278 26.902 M 10 12.534 C 10 12.920, 17.491 42.995, 26.646 79.368 L 43.292 145.500 56.146 158.495 L 69 171.491 68.994 106.995 L 68.987 42.500 40.347 27.500 C 8.588 10.866, 10 11.563, 10 12.534 M 173.500 80.685 C 154.992 82.300, 132.276 87.141, 115.500 93.045 C 105.296 96.637, 88.587 104.319, 82.250 108.333 L 78 111.025 78 167.590 L 78 224.154 83.688 233.686 L 89.377 243.219 91.672 238.019 C 95.275 229.854, 102.527 219.633, 108.776 213.914 C 128.654 195.719, 155.547 196.401, 184.338 215.830 L 190.176 219.769 198.028 214.360 C 220.437 198.924, 240.335 196.011, 257 205.728 C 266.372 211.192, 278.910 225.201, 285.950 238.075 L 288.728 243.155 292.364 234.071 L 296 224.986 296 167.723 L 296 110.460 285.682 104.719 C 252.246 86.117, 211.441 77.374, 173.500 80.685 M 134.045 210.092 C 119.645 212.915, 106.048 226.231, 98.435 244.968 C 97.096 248.264, 96.024 251.982, 96.053 253.230 C 96.083 254.479, 100.470 264.126, 105.803 274.669 L 115.500 293.837 152.748 275.765 L 189.996 257.693 205.748 265.256 C 214.412 269.415, 231.213 277.526, 243.084 283.280 L 264.669 293.742 274.579 273.840 L 284.490 253.939 281.259 247.720 C 272.436 230.741, 260.926 217.563, 250.412 212.405 C 245.862 210.173, 242.772 209.425, 236.999 209.158 C 224.944 208.600, 214.798 212.818, 197.285 225.669 L 190.070 230.963 182.413 225.470 C 172.261 218.186, 160.108 212.300, 151.500 210.499 C 143.741 208.876, 140.622 208.803, 134.045 210.092 M 125.315 223.464 C 120.134 225.717, 119 229.224, 119 243 C 119 261.495, 120.910 263.569, 137.246 262.808 C 148.096 262.303, 153.644 260.213, 160.215 254.156 C 170.874 244.331, 173.938 226.208, 165.483 222.994 C 161.351 221.422, 129.141 221.799, 125.315 223.464 M 233.325 223.411 C 229.134 225.298, 226.727 229.160, 226.727 234 C 226.727 244.776, 239.107 249.717, 246.575 241.922 C 248.998 239.393, 249.500 238.024, 249.500 233.954 C 249.500 229.808, 249.023 228.561, 246.450 225.989 C 242.830 222.369, 237.826 221.386, 233.325 223.411 M 74.982 237.583 C 74.973 238.088, 69.362 260.531, 62.514 287.457 L 50.064 336.414 65.239 368.207 C 73.585 385.693, 80.658 399.996, 80.957 399.991 C 81.255 399.985, 86.863 380.298, 93.417 356.241 C 99.971 332.183, 106.114 309.733, 107.068 306.350 L 108.801 300.201 98.058 278.350 C 92.149 266.333, 84.719 252.225, 81.546 247 C 75.180 236.516, 75.008 236.269, 74.982 237.583 M 296.095 248.754 C 294.223 253.564, 287.874 267.175, 281.987 279 L 271.284 300.500 283.743 350.815 C 290.596 378.488, 296.325 400.988, 296.473 400.815 C 296.621 400.642, 304.205 386.051, 313.326 368.392 L 329.909 336.283 315.205 288.143 C 307.117 261.665, 300.275 240.003, 300 240.004 C 299.725 240.006, 297.968 243.943, 296.095 248.754 M 172 276.271 L 155.500 284.500 139.255 371.500 C 130.320 419.350, 122.895 459.605, 122.755 460.955 C 122.520 463.214, 125.202 464.878, 156.278 481.752 L 190.055 500.093 222.584 481.796 L 255.112 463.500 254.524 460.500 C 254.200 458.850, 250.579 437.700, 246.476 413.500 C 242.373 389.300, 235.750 350.375, 231.758 327 L 224.500 284.500 208 276.320 C 198.925 271.821, 190.825 268.118, 190 268.091 C 189.175 268.064, 181.075 271.745, 172 276.271 M 175.354 286.521 C 174.226 289.459, 175.622 303.422, 177.380 306.794 C 182.392 316.408, 197.540 316.408, 202.656 306.794 C 203.939 304.382, 204.421 301.089, 204.455 294.500 L 204.500 285.500 190.229 285.222 C 177.992 284.984, 175.872 285.169, 175.354 286.521 M 130.827 296.021 C 122.708 300.128, 116.937 303.660, 116.618 304.718 C 113.857 313.887, 86.560 414.985, 85.557 419.757 L 84.241 426.015 99.871 437.357 C 112.435 446.476, 115.635 448.386, 116.188 447.100 C 116.567 446.220, 123.224 411.075, 130.981 369 C 138.739 326.925, 145.322 291.712, 145.610 290.750 C 145.899 289.788, 145.767 289.024, 145.317 289.052 C 144.868 289.081, 138.347 292.217, 130.827 296.021 M 234.489 291.302 C 235.023 293.644, 255.465 413.468, 259.134 435.761 L 261.317 449.022 263.909 447.336 C 279.960 436.893, 295 426.536, 295 425.926 C 295 425.508, 294.081 423.023, 292.959 420.404 C 291.460 416.907, 268.031 325.415, 263.471 305.251 C 262.971 303.042, 254.318 298.095, 239.451 291.521 L 233.988 289.105 234.489 291.302"
        stroke="none"
        fill="#301bc1"
        fill-rule="evenodd" />
    <path d="" stroke="none" fill="#301bc1" fill-rule="evenodd" />
</svg>
